<?xml version="1.0" encoding="UTF-8" standalone="no"?>
<!DOCTYPE svg PUBLIC "-//W3C//DTD SVG 1.1//EN" "http://www.w3.org/Graphics/SVG/1.1/DTD/svg11.dtd">
<svg width="100%" height="100%" viewBox="0 0 1024 1024" version="1.1" xmlns="http://www.w3.org/2000/svg" xmlns:xlink="http://www.w3.org/1999/xlink" xml:space="preserve" xmlns:serif="http://www.serif.com/" style="fill-rule:evenodd;clip-rule:evenodd;stroke-linejoin:round;stroke-miterlimit:2;">
    <g transform="matrix(0.1,0,0,-0.1,0,1024)">
        <g transform="matrix(1.5373,0,0,1.49697,-2750.39,-4339.66)">
            <path d="M3107,7604C3104,7601 3095,7600 3088,7603C3080,7606 3083,7609 3094,7609C3105,7610 3111,7607 3107,7604ZM6148,7603C5595,7601 4686,7601 4128,7603C3571,7604 4024,7605 5135,7605C6246,7605 6702,7604 6148,7603ZM7184,7589C7178,7579 7210,7569 7222,7577C7228,7580 7230,7578 7227,7573C7219,7560 7254,7527 7265,7537C7269,7542 7270,7540 7267,7533C7259,7520 7269,7488 7279,7494C7282,7496 7284,7475 7283,7447C7282,7396 7282,7396 7289,7435C7294,7458 7297,7336 7298,7155C7298,6949 7295,6842 7289,6855C7282,6871 7280,6869 7283,6843C7285,6824 7282,6813 7276,6817C7271,6821 7269,6816 7273,6806C7277,6797 7276,6791 7271,6794C7259,6802 7238,6775 7248,6766C7252,6762 7250,6759 7245,6761C7223,6766 7160,6747 7167,6737C7170,6731 7168,6730 7161,6734C7143,6745 7098,6732 7106,6718C7110,6712 7109,6710 7102,6714C7088,6723 7039,6700 7047,6687C7050,6681 7048,6680 7041,6684C7014,6701 6870,6545 6887,6517C6891,6511 6888,6510 6880,6515C6870,6521 6868,6519 6873,6506C6877,6497 6876,6491 6871,6495C6859,6502 6836,6434 6844,6414C6847,6406 6846,6402 6841,6405C6836,6408 6828,6385 6825,6355C6816,6287 6827,6187 6842,6196C6849,6200 6850,6198 6846,6191C6836,6175 6848,6128 6860,6135C6865,6138 6867,6134 6864,6126C6857,6107 6890,6049 6903,6057C6909,6060 6910,6059 6907,6054C6900,6042 6916,6015 6930,6015C6935,6015 6940,6011 6941,6005C6942,5989 6961,5970 6970,5975C6974,5978 6984,5972 6991,5962C7004,5946 7003,5946 6985,5959C6974,5966 6981,5958 7000,5941C7019,5924 7041,5912 7048,5915C7056,5918 7058,5915 7054,5908C7049,5900 7052,5899 7064,5903C7073,5907 7078,5906 7075,5901C7068,5889 7106,5877 7121,5886C7129,5891 7130,5889 7125,5880C7119,5870 7124,5869 7146,5874C7168,5879 7172,5878 7160,5870C7148,5861 7152,5859 7177,5862C7195,5865 7207,5863 7204,5858C7201,5854 7206,5849 7214,5849C7251,5846 7255,5845 7255,5835C7257,5814 7272,5780 7278,5784C7282,5786 7285,5677 7285,5542L7284,5295L7296,5765L7296,5460C7296,5292 7294,5187 7290,5225L7284,5295L7282,5215C7280,5147 7276,5129 7255,5097C7241,5077 7225,5060 7219,5060C7213,5060 7212,5056 7215,5050C7219,5044 7214,5043 7204,5047C7192,5051 7189,5050 7194,5042C7204,5025 3112,5025 3055,5042C3033,5048 3011,5052 3005,5051C3000,5050 2998,5052 3003,5056C3012,5065 2980,5101 2969,5094C2964,5091 2963,5097 2967,5106C2971,5117 2969,5121 2963,5117C2955,5112 2952,5208 2951,5437C2950,5616 2946,5768 2943,5773C2939,5779 2942,5780 2950,5775C2960,5769 2962,5772 2958,5788C2955,5800 2955,5808 2959,5807C2969,5804 3009,5848 3002,5855C2998,5858 3004,5858 3014,5854C3026,5849 3031,5850 3027,5856C3023,5863 3033,5865 3052,5862C3075,5858 3081,5860 3075,5870C3070,5879 3071,5881 3079,5876C3097,5865 3142,5878 3134,5892C3130,5898 3131,5900 3138,5896C3151,5888 3201,5910 3195,5920C3192,5924 3198,5927 3208,5926C3217,5926 3224,5931 3222,5938C3221,5946 3224,5949 3230,5945C3246,5935 3334,6026 3324,6042C3320,6049 3320,6052 3325,6048C3336,6037 3363,6077 3354,6092C3349,6099 3351,6100 3360,6095C3370,6089 3372,6091 3367,6104C3363,6113 3364,6118 3369,6115C3381,6108 3393,6146 3384,6161C3380,6168 3381,6170 3387,6167C3399,6160 3405,6178 3415,6253C3424,6313 3413,6413 3398,6404C3391,6400 3390,6402 3394,6409C3404,6425 3392,6473 3381,6465C3376,6462 3374,6468 3377,6478C3386,6514 3255,6680 3229,6664C3224,6661 3221,6664 3222,6672C3224,6679 3217,6684 3208,6684C3198,6683 3192,6686 3195,6690C3201,6700 3151,6722 3138,6714C3132,6710 3130,6712 3134,6718C3142,6732 3106,6743 3078,6735C3059,6730 3058,6731 3070,6740C3082,6749 3079,6751 3053,6748C3034,6745 3023,6748 3027,6754C3031,6759 3026,6761 3016,6757C3006,6753 3001,6754 3005,6760C3008,6766 3007,6770 3002,6770C2997,6770 2984,6782 2974,6798C2957,6823 2955,6854 2950,7157C2947,7339 2947,7487 2949,7484C2954,7479 2981,7530 2984,7550C2986,7558 2992,7566 2998,7566C3005,7567 3015,7568 3021,7569C3026,7569 3028,7574 3025,7580C3021,7586 3026,7587 3036,7583C3046,7580 3051,7581 3048,7586C3044,7591 3856,7595 5115,7595C6255,7595 7186,7592 7184,7589ZM3407,6283C3405,6267 3403,6278 3403,6305C3403,6333 3405,6345 3407,6333C3409,6320 3409,6298 3407,6283ZM6837,6328C6834,6320 6831,6323 6831,6334C6830,6345 6833,6351 6836,6347C6839,6344 6840,6335 6837,6328ZM6837,6258C6834,6250 6831,6253 6831,6264C6830,6275 6833,6281 6836,6277C6839,6274 6840,6265 6837,6258Z" style="fill:rgb(122,92,84);fill-opacity:0.65;fill-rule:nonzero;stroke:white;stroke-opacity:0.65;stroke-width:6.59px;"/>
        </g>
        <path d="M4921.03,5930.87C4920.83,5930.76 4920.64,5930.65 4920.45,5930.54L4915,5925L4921.03,5930.87Z" style="fill:rgb(0,255,38);fill-opacity:0.64;"/>
    </g>
    <g transform="matrix(0.0597212,0,0,-0.0597212,205.732,822.299)">
        <g id="Layer1">
            <g>
                <g>
                    <g>
                        <path d="M4591,7656C4548,7632 4541,7604 4540,7468C4540,7341 4540,7340 4569,7308L4598,7275L4950,7269L4950,6975L4828,6958C4679.58,6937.34 4594.96,6920.2 4484.58,6885.52C4450.68,6874.87 4414.35,6862.57 4373,6848C3982,6710 3607,6433 3363,6103C3137,5799 2995,5432 2959,5065C2949,4958 2951,4645 2963,4585C2966,4574 2971,4543 2975,4515C2988,4424 3028,4267 3070,4147C3230,3681 3575,3273 4020,3018C4346,2832 4680,2736 5050,2723C5821,2696 6526,3051 6952,3681C7183,4022 7304,4417 7304,4830C7305,5312 7168,5729 6887,6109C6794,6236 6589,6440 6461,6534C6225,6709 5981,6827 5707,6900C5589,6931 5377,6970 5323,6970L5290,6970L5290,7270L5455,7270C5561,7270 5628,7274 5645,7282C5691,7303 5700,7336 5700,7480L5700,7612L5642,7670L5128,7670C4721,7669 4610,7667 4591,7656ZM5350,6665C5639,6632 5954,6516 6195,6356C6637,6061 6905,5633 6988,5090C7000,5012 6996,4620 6982,4550C6976,4514 6967,4472 6964,4455C6944,4340 6877,4154 6811,4025C6657,3725 6428,3472 6155,3303C5577,2943 4861,2912 4259,3221C4052,3328 3866,3469 3724,3628C3431,3956 3266,4357 3261,4749C3260,4817 3257,4876 3255,4880C3247,4893 3273,5124 3296,5238C3326,5389 3372,5517 3452,5679C3561,5898 3711,6080 3940,6271C4004,6325 4174,6428 4286,6482C4506,6587 4721,6647 4950,6666C4991,6669 5026,6673 5027,6674C5032,6679 5299,6671 5350,6665Z" style="fill:rgb(250,47,151);fill-rule:nonzero;"/>
                        <path d="M5059,6361L5030,6332L5030,6010L5059,5978C5083,5951 5095,5945 5130,5945C5165,5945 5177,5951 5202,5979L5231,6012L5225,6342L5197,6366C5156,6401 5098,6399 5059,6361Z" style="fill:rgb(250,47,151);fill-rule:nonzero;"/>
                        <path d="M6065,5910C6054,5906 5969,5824 5876,5729C5467,5310 5319,5163 5315,5170C5312,5175 5280,5188 5244,5200C5062,5261 4858,5175 4773,5002C4748,4950 4745,4935 4745,4840C4746,4749 4749,4728 4771,4680C4807,4602 4885,4526 4967,4487C5028,4459 5045,4455 5125,4455C5202,4455 5223,4459 5272,4482C5304,4497 5345,4521 5365,4537C5409,4572 5485,4708 5485,4708C5485,4708 5506,4904 5482,4967L5462,5019L5836,5399C6161,5729 6210,5783 6210,5809C6210,5891 6138,5941 6065,5910Z" style="fill:rgb(250,47,151);fill-rule:nonzero;"/>
                        <path d="M3581,4916C3553,4900 3531,4864 3530,4832C3530,4801 3556,4753 3579,4740C3590,4734 3669,4730 3760,4730L3922,4730L3951,4759C3974,4782 3980,4797 3980,4830C3980,4863 3974,4878 3951,4901L3922,4930L3763,4930C3651,4929 3598,4925 3581,4916Z" style="fill:rgb(250,47,151);fill-rule:nonzero;"/>
                        <path d="M6332,4915C6274,4889 6261,4807 6309,4759L6338,4730L6495,4730C6677,4730 6702,4738 6721,4799C6736,4850 6712,4904 6668,4919C6621,4935 6372,4932 6332,4915Z" style="fill:rgb(250,47,151);fill-rule:nonzero;"/>
                        <path d="M5094,3705C5035,3680 5030,3663 5030,3482L5030,3318L5059,3289C5082,3266 5097,3260 5130,3260C5163,3260 5178,3266 5201,3289L5230,3318L5230,3650L5203,3679C5169,3715 5135,3723 5094,3705Z" style="fill:rgb(250,47,151);fill-rule:nonzero;"/>
                        <path d="M6489,6943C6463,6914 6394,6812 6385,6788C6382,6781 6401,6757 6427,6734C6538,6640 6794,6440 6801,6442C6812,6446 6910,6571 6926,6602C6952,6653 6929,6688 6785,6807C6713,6867 6638,6928 6619,6943C6571,6980 6522,6979 6489,6943Z" style="fill:rgb(250,47,151);fill-rule:nonzero;"/>
                    </g>
                </g>
            </g>
        </g>
    </g>
</svg>
